<?xml version="1.0" encoding="utf-8"?>
<!-- Generator: Adobe Illustrator 22.0.1, SVG Export Plug-In . SVG Version: 6.00 Build 0)  -->
<svg version="1.1" xmlns="http://www.w3.org/2000/svg" xmlns:xlink="http://www.w3.org/1999/xlink" x="0px" y="0px"
	 viewBox="0 0 539 612" style="enable-background:new 0 0 539 612;" xml:space="preserve">
<style type="text/css">
	.st0{clip-path:url(#SVGID_2_);fill:#167B87;}
	.st1{clip-path:url(#SVGID_4_);}
	.st2{fill:#165969;}
	.st3{clip-path:url(#SVGID_6_);fill:#167B87;}
	.st4{fill:#F14839;}
	.st5{fill:none;}
	.st6{fill:#E2E4C9;}
	.st7{clip-path:url(#SVGID_8_);}
</style>
<g id="圖層_2">
</g>
<g id="圖層_1">
	<g>
		<defs>
			<rect id="SVGID_1_" y="-1213" width="1929" height="1097"/>
		</defs>
		<clipPath id="SVGID_2_">
			<use xlink:href="#SVGID_1_"  style="overflow:visible;"/>
		</clipPath>
		<path class="st0" d="M1277,611c0,0-64.1-67.7-87.7-219s-43.2-304.6-246-417.9S513.6-117.3,388-253.1S187.6-508,9.5-551.7
			s-292.2-25.6-369.2-101l-18,83.3L505.8,264L1277,611z"/>
	</g>
	<g>
		<defs>
			<rect id="SVGID_3_" y="-1213" width="1929" height="1097"/>
		</defs>
		<clipPath id="SVGID_4_">
			<use xlink:href="#SVGID_3_"  style="overflow:visible;"/>
		</clipPath>
		<g class="st1">
			<path class="st2" d="M1329.1,411.9c0,0-245.6-107.4-304.4-248.8c-58.8-141.4-80.2-234.3-304-296.2s-305.8,18.4-460.1-83.7
				S5.5-417-177.8-417.2s-290,44.4-382.6-10.6l2.3,85.2L497.8,257.7L1329.1,411.9z"/>
		</g>
	</g>
	<g>
		<defs>
			<rect id="SVGID_5_" x="684" y="-4" width="1929" height="1097"/>
		</defs>
		<clipPath id="SVGID_6_">
			<use xlink:href="#SVGID_5_"  style="overflow:visible;"/>
		</clipPath>
		<path class="st3" d="M1961,1820c0,0-64.1-67.7-87.7-219s-43.2-304.6-246-417.9s-429.7-91.4-555.3-227.2S871.6,701,693.5,657.3
			s-292.2-25.6-369.2-101l-18,83.3l883.5,833.4L1961,1820z"/>
	</g>
	<g>
		<path class="st4" d="M24.9,277.2c-4,9-10.5,18.4-16.4,24.2c-1.3-1.4-4.2-4.3-5.8-5.6c5.8-4.9,11.6-12.9,14.9-20.9L24.9,277.2z
			 M40.3,302.5c4.5,6.1,9.5,13.9,12.2,19l-6.8,3.6c-0.7-1.6-1.7-3.4-2.9-5.4c-26.6,2.1-30.4,2.4-33.1,3.4c-0.4-1.4-1.7-5.1-2.7-7
			c1.8-0.5,3.3-2,5.5-4.4c2.3-2.4,9.2-11.7,13.6-20.9l7.7,3.2c-4.2,7.4-9.5,14.8-14.9,20.8l20.2-1.3c-1.8-2.8-3.6-5.6-5.3-8.1
			L40.3,302.5z M41.4,274.9c2.4,7.7,7.4,15.5,14.2,19.6c-1.5,1.4-3.9,4.6-5,6.6c-6.3-4.8-11.2-12.2-14.3-19.5h-8.8v-6.8L41.4,274.9
			L41.4,274.9z"/>
		<path class="st4" d="M92.7,306.4c2.4,6.8,6,11.6,9,11.6c1.4,0,1.9-2.3,2.3-7.8c1.5,1.3,3.9,2.5,5.7,3.1
			c-0.9,9.2-3.3,11.2-8.3,11.2c-6.9,0-12.7-7.6-15.7-18.1H71.3v10.3l13.1-2.8c0.1,1.9,0.4,4.7,0.7,6.2c-16.2,3.8-18.9,4.3-20.6,5.2
			c-0.4-1.7-1.9-4.5-2.9-5.8c1.2-0.8,2.8-2.3,2.8-4.7V276h40.1v18H90.1c0.2,2.2,0.5,4.2,0.9,6.2h17.4v6.1L92.7,306.4L92.7,306.4z
			 M71.3,282.2v5.8h26.6v-5.8H71.3z M84.2,300.2c-0.4-2-0.7-4.1-0.8-6.2H71.3v6.2H84.2z"/>
		<path class="st4" d="M134.6,308.8c-0.7-1.5-2-3.9-3.3-6.1v22.4H125v-19.9c-1.8,4.2-3.9,8.2-6,10.9c-0.6-1.9-2-4.6-3-6.2
			c3.1-3.5,6.2-9.4,8.2-14.8h-7.6V289h8.3v-6.2c-2.2,0.3-4.2,0.7-6.2,0.9c-0.2-1.5-1-3.6-1.8-5.1c6.3-0.9,13.2-2.6,17.8-4.5l3.7,5.3
			c-2.2,0.8-4.6,1.5-7.1,2v7.6h7.3v6.1h-7.3v0.4c1.6,1.5,6.1,6.7,7.2,8L134.6,308.8z M161.8,311.2v13.9h-6.5v-12.7l-16.7,2.9l-1-6.2
			l17.7-3v-32.3h6.5V305l5.5-0.9l1,6.1L161.8,311.2z M147.9,303.5c-1.7-2.4-5.6-6-8.8-8.4l4.2-3.8c3.1,2.2,7.2,5.6,9,8L147.9,303.5z
			 M149.4,288.9c-1.5-2.4-5.1-5.9-8.2-8.3l4.3-3.8c3,2.3,6.8,5.5,8.5,7.9L149.4,288.9z"/>
		<path class="st4" d="M191.9,303.1c-1.9,0.6-3.9,1.1-5.9,1.6v13.2c0,3.2-0.6,4.7-2.5,5.8c-1.8,1-4.5,1.2-8.3,1.2
			c-0.3-1.7-1.1-4.2-1.9-6c2.2,0.1,4.4,0.1,5.1,0.1c0.8,0,1-0.3,1-1.1v-11.4l-5.3,1.3l-1.7-6.2c2-0.4,4.4-0.9,7.1-1.6v-9.8h-6.3
			v-6.1h6.3v-10.5h6.5v10.5h5.4v6.1H186v8.2l5.1-1.3L191.9,303.1z M222.5,295.6c-2.1,7.7-5.6,13.7-10.3,18.3
			c3.6,2.5,7.8,4.4,12.7,5.6c-1.4,1.3-3.3,4-4.2,5.7c-5.3-1.6-9.9-3.9-13.7-6.9c-4.3,3-9.2,5.2-14.5,6.8c-0.7-1.8-2.3-4.5-3.5-6
			c4.9-1.2,9.3-2.9,13.2-5.4c-3.3-3.7-5.8-8.1-7.8-13.1l1.7-0.5h-2.9v-5.9h10.9v-6.6h-11.9v-6.1h11.9v-7.9h6.5v7.9H223v6.1h-12.4
			v6.6h6.6l1.2-0.3L222.5,295.6z M200.7,300c1.5,3.6,3.8,6.9,6.5,9.8c2.9-2.8,5.2-6,6.9-9.8H200.7z"/>
		<path class="st4" d="M242,289.1V287c-1.9,1.4-3.9,2.8-5.9,4h23.3v17.3h-19.1c-0.1,0.6-0.2,1.2-0.3,1.7h20.7v14.7H255v-1.5h-10.2
			v1.7h-5.5v-11.4c-0.8,3.5-1.9,6.8-3.5,9.7c-1.3-0.8-4.1-2-5.7-2.5c4.4-7,4.8-16.9,4.8-23.3v-5.6l-1.3,0.7
			c-0.6-1.5-2.3-4.9-3.4-6.3c6.4-2.7,12.8-7.2,16.4-12.5l6,2.4c-0.3,0.5-0.7,0.9-1,1.4c4.1,2.4,8.7,5.1,11.2,6.9l-3.4,5.5
			c-1.5-1.2-3.6-2.6-6-4.2v3.6H242V289.1z M253.5,303.7v-2.3h-12.6c0,0.7-0.1,1.5-0.1,2.3H253.5z M240.9,295.5v1.8v0.3h12.5v-2.2
			h-12.5V295.5z M253,285.2c-1.8-1.1-3.6-2.3-5.2-3.3c-1.2,1.1-2.4,2.3-3.6,3.3H253z M244.8,314.4v3.9H255v-3.9H244.8z M270,310.1
			h-6.2v-30.8h6.2V310.1z M280.1,273.8v43.5c0,3.5-0.7,5.3-2.7,6.3c-1.9,1.1-5.1,1.3-9.5,1.3c-0.3-1.8-1-4.7-1.9-6.6
			c2.8,0.1,5.7,0.1,6.6,0.1s1.3-0.3,1.3-1.2v-43.4L280.1,273.8z"/>
		<path class="st4" d="M295.7,309.6c-1.4,4-3.6,8.5-5.6,11.3c-1-0.8-3.1-2.3-4.3-3c1.9-2.6,3.7-6.3,4.9-9.8L295.7,309.6z
			 M303.4,306.4v18.3h-6.3v-18.3h-10.3v-5.5h10.3v-4.2h-10.6v-5.4h5.3c-0.3-1.7-0.9-4-1.6-5.7l4.5-1.1h-7.4v-5.3h9.4
			c-0.5-1.5-1.1-3-1.7-4.4l6.6-1.6c0.8,1.8,1.8,4.1,2.5,6h7.9v5.3h-6.9l4.5,0.9c-0.8,2.1-1.7,4.2-2.5,6h5.7v5.4h-9.4v4.2h8.5v5.5
			L303.4,306.4L303.4,306.4z M295.5,284.4c0.8,1.8,1.5,4.2,1.8,5.7l-4,1.1h7.9c0.8-2,1.8-4.8,2.4-6.8L295.5,284.4z M337.4,297.8
			h-5.1v27.1h-6.4v-27.1h-5.1v0.7c0,8.1-0.7,19.5-5.4,26.5c-1.1-1.2-3.7-3.3-5.1-3.9c1-1.6,1.9-3.4,2.5-5.3l-3.9,2.4
			c-0.9-2.2-2.8-5.7-4.3-8.3l4.3-2.3c1.5,2.2,3.2,5.1,4.1,7.2c1.5-5.3,1.7-11.2,1.7-16.3v-19.6c6-1.1,12.7-2.8,16.7-4.7l5,4.8
			c-4.5,1.8-10.3,3.1-15.7,4.1v8.7h16.7L337.4,297.8z"/>
		<path class="st4" d="M377.5,313.9c5.9,2,12.6,4.4,16.5,6.1l-3,5.1c-4.8-2.4-14.6-6.1-21.5-8.5l1.7-2.8h-1.7
			c-2.6,4.6-9,9.2-23.7,11.5c-0.8-1.5-2.4-3.9-3.6-5.3c9.9-1.5,15.6-3.8,18.7-6.2h-18.4v-5.4h22.1c0.1-0.5,0.1-1,0.1-1.5v-3.6h6.5
			v3.9c0,0.4,0,0.8-0.1,1.3h9.6c-1.2-1-2.5-2-3.6-2.8l2-1.9H377c-0.2-1.5-0.9-3.3-1.6-4.7c1.8,0.1,3.8,0.1,4.4,0.1
			c0.6-0.1,0.8-0.2,0.8-0.8v-3.2h-9.2c1.4,1.1,2.9,2.3,3.6,3.3l-4.3,3.3c-1-1.4-3.4-3.5-5.4-4.9l2.3-1.7h-5.5V291h2.2
			c-0.6-1.1-1.4-2.3-2.2-3.1c5-0.5,9.7-1.5,13.8-3.1c-1.2-1.4-2.9-3-4.6-4.3c-1.8,0.7-3.8,1.3-6,1.9c-0.7-1.2-2.2-2.9-3.2-3.7
			c6.6-1.3,11.6-3.3,14.4-5.4l5.4,1.1c-0.8,0.7-1.5,1.3-2.4,1.9h7.7l1-0.2l3.4,1.7c-2.4,4.4-6.3,7.4-11,9.6h6v3.5h6.2v4.2h-6.2v3.4
			c0,2.6-0.5,3.8-2.3,4.5c-0.8,0.3-1.8,0.5-2.9,0.6c1.7,1.1,3.3,2.4,4.3,3.4l-1.3,1.3h9.2v5.4h-16.1L377.5,313.9z M351.6,295
			c0,2.6-0.8,8-4.4,11c-1.1-0.9-3.5-2.2-5-2.8c3-2.3,3.6-6.2,3.6-8.2h-3.1v-5.1h11.7v-3h-9.5V275h5.5v6.9h4.1v-8.2h6v31.4h-6V295
			L351.6,295z M372.2,285.5c-2.7,0.3-5.2,0.6-7.7,0.8l-0.6-3.3c2.3-0.2,5-0.4,8.2-0.6L372.2,285.5z M380.6,291v-3.4
			c-3.5,1.5-7.3,2.6-11.5,3.4H380.6z M376.4,279.9c1.2,1,2.4,2.2,3.5,3.2c1.6-0.9,3-2,4.2-3.2H376.4z"/>
		<path class="st4" d="M449.6,288.4c-0.5,22.6-1,30.7-2.8,33.3c-1.3,1.9-2.6,2.5-4.6,2.8c-1.8,0.3-4.6,0.3-7.5,0.2
			c-0.1-1.8-0.8-4.5-1.9-6.2c2.7,0.2,5.2,0.2,6.4,0.2c0.9,0,1.4-0.2,1.9-0.9c1.3-1.5,1.8-8.3,2.1-26h-5.9
			c-0.8,14.6-3.8,26.1-14.4,33.5c-1-1.6-3-3.8-4.6-5c2.7-1.8,4.9-3.9,6.5-6.2c-8.4,2.1-17.5,4.2-24.2,5.8l-1-6.7
			c1.1-0.2,2.4-0.4,3.8-0.7v-36.4h19.1v32.5l2.4-0.5l0.6,5.2c3.7-5.7,5-12.8,5.5-21.4h-7v-6.2h7.2c0.1-3.8,0.1-7.7,0.1-11.9h6.5
			c0,4.1,0,8.1-0.1,11.9h12v2.7L449.6,288.4z M409.2,281.8v5.6h7.3v-5.6H409.2z M416.4,293.1h-7.3v5.7h7.3V293.1z M409.2,311.2
			c2.3-0.4,4.7-1,7.3-1.5v-5.2h-7.3V311.2z"/>
		<path class="st4" d="M484.4,295.6v5.7H502v5.9h-8.7l5.5,2c-1.9,3.1-4.1,6.4-5.8,8.8h11.9v6h-47.7v-6h10.9
			c-0.9-2.5-2.8-6.2-4.6-8.9l4.4-1.8h-8v-5.9h17.5v-5.7h-11.2V293c-2.3,1.1-4.7,2.1-7.1,3c-0.9-1.9-2.7-4.4-4.4-6.1
			c10.4-3,20.3-8.5,25.5-16.8l6.2,2.8c-0.5,0.7-1,1.4-1.5,2.2c5.4,4.9,14.3,9.4,22.6,11.7c-1.5,1.4-3.5,4-4.5,5.7
			c-2.5-0.9-5-2-7.5-3.2v3.3H484.4z M469,307.2c1.9,2.7,4,6.3,4.8,8.8l-4.5,2h8.1v-10.8H469z M490.6,289.6c-3.5-2.2-6.7-4.6-9.5-7.2
			c-2.6,2.8-5.7,5.1-8.9,7.2H490.6z M484.4,307.2V318h6.9l-3.7-1.5c1.7-2.5,3.8-6.3,4.9-9.2L484.4,307.2L484.4,307.2z"/>
		<line class="st5" x1="508" y1="200.7" x2="508" y2="405.3"/>
		<line class="st5" x1="0" y1="210.8" x2="0" y2="355.4"/>
	</g>
	<g>
		<g>
			<g transform="translate(425 1)">
				<path class="st6" d="M-94.4,553.6h-14.3V550h-5.5v3.6h-14.9v14c0,7-1.4,13.4-3.3,17.8l4.6,3.2c1.6-4.1,2.5-8.3,3.1-14.1l2.6,3
					c0.7-1,1.2-1.8,2-3.1v14.1h4.6v-22.3c1-2.2,1.6-4.1,2.3-6.2l-4.6-1.2c-1.5,5.2-3.8,9.6-6.7,13.9c0.1-2,0.2-3.7,0.2-5.1v-9.3h30
					L-94.4,553.6z"/>
				<path class="st6" d="M-93.5,563.8h-4.6v-4.6h-4.8v4.6h-11v4.8h11v13.1c0,0.8-0.5,1.3-1.4,1.3c-0.5,0-4.4-0.3-4.4-0.3l0.6,5.1
					h6.3c2.4,0,3.6-1.4,3.6-4.1v-15h4.6L-93.5,563.8z"/>
				<path class="st6" d="M-110.3,569.9l-3.6,2.3c1.7,2.4,2.7,4.3,4.6,7.4l4-2.7C-107.2,574.3-108.5,572.3-110.3,569.9z"/>
			</g>
			<path class="st6" d="M278.5,578.2c2.4-4.1,3.7-7.4,4.5-15.5h2.5v-4.8h-11.4c0.6-1.6,1.8-4.5,2.2-6.4l-4.7-1.1
				c-1.7,5.9-3.6,9.8-5.5,13.9l-4.5-0.1v-6.4h5.5v-4.6h-19.5v4.6h9.2v21.7c-1.1,0.3-1.3,0.4-2.5,0.7v-17.4h-4.5v18.4l-3.9,1l1.6,5.1
				c7.3-1.8,15.3-4.7,20.4-7.1l-0.5-4.4c-1.4,0.6-4,1.4-5.8,2.1v-9h2.1l-0.6,0.8l3.8,2.7c0.7-1,1.1-1.6,1.8-3.1
				c1.3,4.3,2.2,5.5,3.9,8.4c-2.9,3-4.8,4.5-9.2,7.2l3.1,4.4c3.7-2.8,6.6-5.6,8.9-7.7c1.9,2.2,4.4,5.1,7.4,7.7l3.2-4.2
				C282.7,582.7,280.5,580.8,278.5,578.2L278.5,578.2z M275.4,574.7c-1.9-3.7-3-5.9-3.6-10.8c0.2-0.4,0.4-0.7,0.6-1.2h5.9
				C277.7,568.4,277.3,570.7,275.4,574.7z"/>
			<g transform="translate(149)">
				<path class="st6" d="M89.6,563.2H80V560h8.1v-4.3H80v-5.3h-5v5.3h-7.8v4.3H75v3.2h-8.8v4.5h13.2v2.8H66.2v4.8h13.2v7.7
					c0,1-0.5,1.4-1.4,1.4c-0.3,0-3.3-0.3-3.3-0.3l0.6,5.3h5.4c2.4,0,3.6-1.4,3.6-4.3v-9.9h5v-4.8h-5v-2.8h5.1L89.6,563.2z"/>
				<path class="st6" d="M65.2,554.7h-13v29.4h13V554.7z M56.9,566.8v-7.9h3.7v7.9H56.9z M56.9,579.7V571h3.7v8.6h-3.7V579.7z"/>
				<path class="st6" d="M71.3,576.3l-3.6,2.2c1.3,1.9,2.2,3.6,3.8,6.2l3.9-2.5C73.9,580,72.8,578.3,71.3,576.3z"/>
			</g>
			<g transform="translate(0 5)">
				<path class="st6" d="M176,563.1h7.4v-2.6h-7.8v2.5c-0.7-0.3-1-0.4-1.6-0.7v-6.6h10.7v7h4.8v-10.4H174v-1.6h13.6V547h-32.5v3.6
					h13.6v1.6h-15.2v10.4h4.8v-7h10.4v6.7c-0.5,0.3-1,0.5-1.6,0.7v-2.5h-7.6v2.6h7.3c-4.5,2.2-10.3,3.8-15.2,4.5l1.6,4.3
					c1.2-0.3,2.4-0.6,3.9-1.1v3.4h21.6c-2.5,1.6-4,2.4-7.3,3.8c0.8,2.2,3.3,2.3,5.2,1.3c4.1-2.2,7-4.1,9.2-6.1V571
					c1.3,0.4,2.4,0.6,3.4,0.8l1.6-4.3C186.4,567,181,565.3,176,563.1L176,563.1z M184.3,570.5h-10.2c0-1.5,0-3.5,0-3.5h-5.3v3.5
					h-10.3c5.5-1.7,9.4-3.6,13-5.7C175.6,567,179.3,568.9,184.3,570.5z"/>
				<path class="st6" d="M171.9,578.1c-4-1.3-4.9-1.6-8.2-2.6l-1.8,3.5l17.5,6.6l2-4.2c0,0-2.3-0.8-4.3-1.5
					C174.7,578.6,175.3,578.4,171.9,578.1z"/>
				<path class="st6" d="M183.4,556.9h-7.9v2.7h7.9V556.9z"/>
				<path class="st6" d="M167.4,556.9h-7.7v2.7h7.7V556.9z"/>
			</g>
			<path class="st6" d="M21,563c6.5,0,11.1,1,14.4,2.2v-5.3c-2.8-0.9-7.2-1.8-14.3-1.8c-9,0-13.3,1.8-15.4,3.9c-2,2-3,4.6-3,8
				s1,6,3,8c2.2,2.2,6.4,3.9,15.1,3.9c7,0,11.3-1,14-3.7c1.5-1.5,2.2-3.5,2.2-7.1v-3H17.5v4.4h13.8c0,0.5,0,1.7-0.8,2.5
				c-1.4,1.4-5,1.9-9.6,1.9c-5.7,0-8.7-1-10.1-2.4c-1-1-1.6-2.5-1.6-4.6c0-2,0.6-3.6,1.7-4.7C12.1,564,15.2,563,21,563L21,563z"/>
			<path class="st6" d="M130.9,558.8h-7.3l-11.8,17.5l-11.7-17.5h-7.7l15.3,22.2h7.8L130.9,558.8z"/>
			<path class="st6" d="M90.5,543.5h-6.3l-41.3,52.9h6.4L90.5,543.5z"/>
			<path class="st6" d="M81.7,562c-2.1-2.1-6.1-4-15-4c-8.5,0-12.9,1.9-15,4c-1.9,1.9-3,4.4-3,7.9s1,6,3,7.9c2.1,2.1,6.3,4,15,4
				s12.9-1.9,15-4c1.9-1.9,3-4.4,3-7.9C84.7,566.3,83.7,563.9,81.7,562z M66.8,577.1c-5.7,0-8.7-1.2-9.9-2.4c-1-1-1.7-2.3-1.7-4.7
				s0.6-3.7,1.7-4.8c1.3-1.3,4.3-2.4,10-2.4s8.6,1.1,9.9,2.4c1,1,1.7,2.3,1.7,4.7s-0.6,3.7-1.7,4.8C75.4,576,72.5,577.1,66.8,577.1z
				"/>
		</g>
		<path class="st6" d="M484.3,121.8H351.6c-1.8,0-3.3-1.3-3.5-3.1s-0.2-4.8-0.1-7.7c0-1.2,0.1-2.2,0.1-3.1c0-28.5,19-47.6,47.3-47.6
			c21.4,0,38,11,45.8,29.7c4.9-6.7,12.4-10.8,20.4-10.8c15.4,0,26.1,10.6,26.1,25.7v13.3C487.8,120.2,486.2,121.8,484.3,121.8
			L484.3,121.8z M355,114.7h125.7V105c0-12.9-9.6-18.6-19.1-18.6c-7.8,0-15,5.6-17.8,13.8c-0.5,1.5-1.8,2.5-3.5,2.4
			c-1.6-0.1-2.9-1.1-3.3-2.6c-5.2-20.4-20.8-32.5-41.7-32.5c-24.5,0-40.3,15.9-40.3,40.6c0,0.9,0,2-0.1,3.3
			C355.1,112.3,355,113.6,355,114.7L355,114.7z"/>
		<path class="st6" d="M474.4,150.2c-9.7,0-17.9-6.7-21.1-16.2c-5.2,20.3-20.7,35.2-45.1,35.2c-25,0-43.8-16.1-43.8-44.1
			c0-2.8-0.3-8.1,0-10.3H497v13.3C497,141.9,486.9,150.2,474.4,150.2z"/>
		<path class="st6" d="M59.9,199.3c-2.9-1.1-5.9-2-9-2.6s-6.3-0.9-9.7-0.9c-7.1,0-12.9,2.2-17.3,6.5c-4.4,4.4-6.6,10.4-6.6,18
			c0,7.5,1.9,13.3,5.9,17.5c3.9,4.2,9.4,6.3,16.6,6.3c3.3,0,6.3-0.4,9-1.3v-24.6h13.6v33.7c-7.2,2.9-15.3,4.4-24.1,4.4
			c-11.2,0-20-3.1-26.2-9.2c-6.3-6.1-9.4-14.6-9.4-25.5c0-11.2,3.6-20.3,10.7-27.4c7.1-7,16.7-10.6,28.8-10.6
			c3.4,0,6.8,0.3,10.1,0.8s6.6,1.3,9.9,2.2L59.9,199.3z"/>
		<path class="st6" d="M99.3,256.1c-8,0-14.4-2.8-19.1-8.4s-7.1-14.8-7.1-27.5c0-11.7,2.6-20.7,7.9-27s11.8-9.5,19.6-9.5
			c8.9,0,15.5,3,19.9,9.1c4.3,6.1,6.5,14.9,6.5,26.3c0,12.1-2.7,21.2-8.2,27.5C113.4,253,106.9,256.1,99.3,256.1L99.3,256.1z
			 M100.5,194.9c-4,0-7.2,1.9-9.6,5.8s-3.6,10.1-3.6,18.6c0,8.6,1,15.1,2.9,19.3s5.2,6.3,9.6,6.3c3.7,0,6.8-2.1,9.2-6.2
			c2.5-4.1,3.7-10.5,3.7-19.1c0-8.8-1-15.1-3-18.9C107.8,196.8,104.7,194.9,100.5,194.9L100.5,194.9z"/>
		<path class="st6" d="M167.4,255.2h-15.9l-20.3-54.5h14.7l9.3,25.3c1.5,3.8,2.9,8.7,4.4,14.6c1.3-4.5,2.1-7.3,2.4-8.4
			s1-3.1,2.1-6.1l9.4-25.3h13.9L167.4,255.2z"/>
		<path class="st6" d="M271.8,199.3c-2.9-1.1-5.9-2-9-2.6s-6.3-0.9-9.7-0.9c-7.1,0-12.9,2.2-17.3,6.5c-4.4,4.4-6.6,10.4-6.6,18
			c0,7.5,1.9,13.3,5.9,17.5c3.9,4.2,9.4,6.3,16.6,6.3c3.3,0,6.3-0.4,9-1.3v-24.6h13.6v33.7c-7.2,2.9-15.3,4.4-24.1,4.4
			c-11.2,0-20-3.1-26.2-9.2c-6.3-6.1-9.4-14.6-9.4-25.5c0-11.2,3.6-20.3,10.7-27.4c7.1-7,16.7-10.6,28.8-10.6
			c3.4,0,6.8,0.3,10.1,0.8s6.6,1.3,9.9,2.2L271.8,199.3z"/>
		<path class="st6" d="M316.8,255.2L303.4,234h-0.5v21.2h-13.6v-54.3c4,0,7.6,0,10.8-0.1c3.1-0.1,6.1-0.1,8.8-0.2
			c6.8,0,12.1,1.3,15.8,3.9s5.5,6.5,5.5,11.7c0,4-1.2,7.4-3.6,10s-5.6,4.5-9.6,5.4l4.1,6l12,17.6L316.8,255.2z M307,210.8h-4v13.9
			c0.7,0.1,1.4,0.2,2.2,0.3s1.5,0.1,2.3,0.1c2.6,0,4.6-0.7,6.2-2c1.6-1.4,2.3-3.2,2.3-5.5c0-2.2-0.8-3.8-2.4-5
			C311.9,211.3,309.7,210.8,307,210.8z"/>
		<path class="st6" d="M378.9,255.2l-3.3-9.5h-21l-3.4,9.5h-13.6l20.2-54.5h16l20.1,54.5H378.9z M367.6,223
			c-0.1-0.3-0.6-1.6-1.3-3.8c-0.7-2.3-1.2-3.7-1.3-4.3c-0.3,1-0.6,2.1-1,3.4s-0.9,2.8-1.5,4.4l-4.8,13.2h14.6L367.6,223z"/>
		<path class="st6" d="M437.7,255.2l-16.3-26.6c-0.8-1.2-1.6-2.7-2.5-4.5s-1.8-3.6-2.6-5.5v1.6v3.5v4.6v26.9h-12.8v-54.5h18.1
			l15.8,26c2.1,3.2,4,6.7,5.6,10.4v-2c0-0.8-0.1-2.4-0.2-5s-0.2-4.7-0.2-6.4v-23h13.1v54.5H437.7z"/>
		<path class="st6" d="M493.8,212.2v43h-13.6v-43H466v-11.5h42v11.5H493.8z"/>
		<path class="st6" d="M9.8,162.9v-16.8l15.7-17.7c8.5-9.5,14.4-17.3,17.6-23.2c3.3-5.9,4.9-11.3,4.9-15.9c0-4.2-1.3-7.7-3.8-10.5
			c-2.5-2.7-6.3-4.1-11.3-4.1c-3.1,0-6.4,0.5-9.9,1.6s-6.7,2.5-9.5,4.3l-2.9-18c4-2,8.2-3.5,12.6-4.5c4.3-1,9.4-1.6,15.2-1.6
			c10.2,0,18.1,2.8,23.5,8.3s8.1,12.5,8.1,21c0,6.8-1.9,13.9-5.7,21.3c-3.8,7.3-10.1,16.1-18.9,26.2l-9.4,11h4.2
			c7.5,0,13.7-0.1,18.7-0.2s9.8-0.2,14.2-0.3v19.1L9.8,162.9z"/>
		<path class="st6" d="M123.9,164.3c-11.9,0-21.4-4.2-28.4-12.5s-10.6-22-10.6-40.9c0-17.4,3.9-30.8,11.8-40.1
			c7.9-9.4,17.6-14,29.2-14c13.2,0,23.1,4.5,29.5,13.6s9.6,22.1,9.6,39c0,17.9-4,31.5-12.1,40.9
			C144.8,159.6,135.1,164.3,123.9,164.3z M125.6,73.4c-6,0-10.8,2.9-14.3,8.6s-5.3,14.9-5.3,27.6c0,12.8,1.4,22.4,4.3,28.6
			c2.9,6.3,7.7,9.4,14.3,9.4c5.5,0,10.1-3.1,13.7-9.2c3.7-6.2,5.5-15.6,5.5-28.3c0-13-1.5-22.4-4.4-28.1
			C136.5,76.2,131.9,73.4,125.6,73.4z"/>
		<path class="st6" d="M194.5,162.9V78.8l-18,7.1l-3-18.9l26.9-8.8H215V163h-20.5V162.9z"/>
		<path class="st6" d="M253.6,164.5c-5.5,0-10.2-0.4-14.1-1.2v-18c2,0.7,4.1,1.2,6.5,1.6s5.4,0.6,9.2,0.6c15.2,0,24.8-7.3,28.7-21.9
			l1.9-7.6c-2.1,2.5-5,4.5-8.7,6.1s-8,2.4-12.7,2.4c-9.6,0-17.3-2.9-23-8.7s-8.5-13.8-8.5-23.9c0-11,3.5-19.9,10.6-26.9
			s16.3-10.5,27.7-10.5c11.5,0,20.6,3.7,27.3,11s10.1,18.6,10.1,33.7c0,20.8-4.7,36.6-14.2,47.3
			C284.9,159.1,271.3,164.5,253.6,164.5L253.6,164.5z M270.1,73.4c-4.9,0-8.8,1.7-12,5.1c-3.1,3.4-4.7,7.6-4.7,12.6
			c0,5.7,1.4,10.1,4.2,13.2c2.8,3.1,6.7,4.7,11.8,4.7c4.9,0,8.9-1.7,12-5c3.2-3.4,4.7-7,4.7-10.9c0-6.2-1.5-11-4.3-14.4
			C279,75.1,275,73.4,270.1,73.4L270.1,73.4z"/>
	</g>
	<g>
		<defs>
			<path id="SVGID_7_" d="M850.3,259.4c-223.8-62-439.1,13.1-593.4-89.1S1.9-29.8-181.5-30C-364.8-30.2-31,285-31,285l877,7
				L850.3,259.4z"/>
		</defs>
		<clipPath id="SVGID_8_">
			<use xlink:href="#SVGID_7_"  style="overflow:visible;"/>
		</clipPath>
		<g class="st7">
			<path class="st4" d="M484.3,121.8H351.6c-1.8,0-3.3-1.3-3.5-3.1s-0.2-4.8-0.1-7.7c0-1.2,0.1-2.2,0.1-3.1
				c0-28.5,19-47.6,47.3-47.6c21.4,0,38,11,45.8,29.7c4.9-6.7,12.4-10.8,20.4-10.8c15.4,0,26.1,10.6,26.1,25.7v13.3
				C487.8,120.2,486.2,121.8,484.3,121.8L484.3,121.8z M355,114.7h125.7V105c0-12.9-9.6-18.6-19.1-18.6c-7.8,0-15,5.6-17.8,13.8
				c-0.5,1.5-1.8,2.5-3.5,2.4c-1.6-0.1-2.9-1.1-3.3-2.6c-5.2-20.4-20.8-32.5-41.7-32.5c-24.5,0-40.3,15.9-40.3,40.6
				c0,0.9,0,2-0.1,3.3C355.1,112.3,355,113.6,355,114.7L355,114.7z"/>
			<path class="st4" d="M474.4,150.2c-9.7,0-17.9-6.7-21.1-16.2c-5.2,20.3-20.7,35.2-45.1,35.2c-25,0-43.8-16.1-43.8-44.1
				c0-2.8-0.3-8.1,0-10.3H497v13.3C497,141.9,486.9,150.2,474.4,150.2z"/>
			<path class="st4" d="M59.9,199.3c-2.9-1.1-5.9-2-9-2.6s-6.3-0.9-9.7-0.9c-7.1,0-12.9,2.2-17.3,6.5c-4.4,4.4-6.6,10.4-6.6,18
				c0,7.5,1.9,13.3,5.9,17.5c3.9,4.2,9.4,6.3,16.6,6.3c3.3,0,6.3-0.4,9-1.3v-24.6h13.6v33.7c-7.2,2.9-15.3,4.4-24.1,4.4
				c-11.2,0-20-3.1-26.2-9.2c-6.3-6.1-9.4-14.6-9.4-25.5c0-11.2,3.6-20.3,10.7-27.4c7.1-7,16.7-10.6,28.8-10.6
				c3.4,0,6.8,0.3,10.1,0.8s6.6,1.3,9.9,2.2L59.9,199.3z"/>
			<path class="st4" d="M99.3,256.1c-8,0-14.4-2.8-19.1-8.4s-7.1-14.8-7.1-27.5c0-11.7,2.6-20.7,7.9-27s11.8-9.5,19.6-9.5
				c8.9,0,15.5,3,19.9,9.1c4.3,6.1,6.5,14.9,6.5,26.3c0,12.1-2.7,21.2-8.2,27.5C113.4,253,106.9,256.1,99.3,256.1L99.3,256.1z
				 M100.5,194.9c-4,0-7.2,1.9-9.6,5.8s-3.6,10.1-3.6,18.6c0,8.6,1,15.1,2.9,19.3s5.2,6.3,9.6,6.3c3.7,0,6.8-2.1,9.2-6.2
				c2.5-4.1,3.7-10.5,3.7-19.1c0-8.8-1-15.1-3-18.9C107.8,196.8,104.7,194.9,100.5,194.9L100.5,194.9z"/>
			<path class="st4" d="M167.4,255.2h-15.9l-20.3-54.5h14.7l9.3,25.3c1.5,3.8,2.9,8.7,4.4,14.6c1.3-4.5,2.1-7.3,2.4-8.4
				s1-3.1,2.1-6.1l9.4-25.3h13.9L167.4,255.2z"/>
			<path class="st4" d="M271.8,199.3c-2.9-1.1-5.9-2-9-2.6s-6.3-0.9-9.7-0.9c-7.1,0-12.9,2.2-17.3,6.5c-4.4,4.4-6.6,10.4-6.6,18
				c0,7.5,1.9,13.3,5.9,17.5c3.9,4.2,9.4,6.3,16.6,6.3c3.3,0,6.3-0.4,9-1.3v-24.6h13.6v33.7c-7.2,2.9-15.3,4.4-24.1,4.4
				c-11.2,0-20-3.1-26.2-9.2c-6.3-6.1-9.4-14.6-9.4-25.5c0-11.2,3.6-20.3,10.7-27.4c7.1-7,16.7-10.6,28.8-10.6
				c3.4,0,6.8,0.3,10.1,0.8s6.6,1.3,9.9,2.2L271.8,199.3z"/>
			<path class="st4" d="M316.8,255.2L303.4,234h-0.5v21.2h-13.6v-54.3c4,0,7.6,0,10.8-0.1c3.1-0.1,6.1-0.1,8.8-0.2
				c6.8,0,12.1,1.3,15.8,3.9s5.5,6.5,5.5,11.7c0,4-1.2,7.4-3.6,10s-5.6,4.5-9.6,5.4l4.1,6l12,17.6L316.8,255.2z M307,210.8h-4v13.9
				c0.7,0.1,1.4,0.2,2.2,0.3s1.5,0.1,2.3,0.1c2.6,0,4.6-0.7,6.2-2c1.6-1.4,2.3-3.2,2.3-5.5c0-2.2-0.8-3.8-2.4-5
				C311.9,211.3,309.7,210.8,307,210.8z"/>
			<path class="st4" d="M378.9,255.2l-3.3-9.5h-21l-3.4,9.5h-13.6l20.2-54.5h16l20.1,54.5H378.9z M367.6,223
				c-0.1-0.3-0.6-1.6-1.3-3.8c-0.7-2.3-1.2-3.7-1.3-4.3c-0.3,1-0.6,2.1-1,3.4s-0.9,2.8-1.5,4.4l-4.8,13.2h14.6L367.6,223z"/>
			<path class="st4" d="M437.7,255.2l-16.3-26.6c-0.8-1.2-1.6-2.7-2.5-4.5s-1.8-3.6-2.6-5.5v1.6v3.5v4.6v26.9h-12.8v-54.5h18.1
				l15.8,26c2.1,3.2,4,6.7,5.6,10.4v-2c0-0.8-0.1-2.4-0.2-5s-0.2-4.7-0.2-6.4v-23h13.1v54.5H437.7z"/>
			<path class="st4" d="M493.8,212.2v43h-13.6v-43H466v-11.5h42v11.5H493.8z"/>
			<path class="st4" d="M9.8,162.9v-16.8l15.7-17.7c8.5-9.5,14.4-17.3,17.6-23.2c3.3-5.9,4.9-11.3,4.9-15.9c0-4.2-1.3-7.7-3.8-10.5
				c-2.5-2.7-6.3-4.1-11.3-4.1c-3.1,0-6.4,0.5-9.9,1.6s-6.7,2.5-9.5,4.3l-2.9-18c4-2,8.2-3.5,12.6-4.5c4.3-1,9.4-1.6,15.2-1.6
				c10.2,0,18.1,2.8,23.5,8.3s8.1,12.5,8.1,21c0,6.8-1.9,13.9-5.7,21.3c-3.8,7.3-10.1,16.1-18.9,26.2l-9.4,11h4.2
				c7.5,0,13.7-0.1,18.7-0.2s9.8-0.2,14.2-0.3v19.1L9.8,162.9z"/>
			<path class="st4" d="M123.9,164.3c-11.9,0-21.4-4.2-28.4-12.5s-10.6-22-10.6-40.9c0-17.4,3.9-30.8,11.8-40.1
				c7.9-9.4,17.6-14,29.2-14c13.2,0,23.1,4.5,29.5,13.6s9.6,22.1,9.6,39c0,17.9-4,31.5-12.1,40.9
				C144.8,159.6,135.1,164.3,123.9,164.3z M125.6,73.4c-6,0-10.8,2.9-14.3,8.6s-5.3,14.9-5.3,27.6c0,12.8,1.4,22.4,4.3,28.6
				c2.9,6.3,7.7,9.4,14.3,9.4c5.5,0,10.1-3.1,13.7-9.2c3.7-6.2,5.5-15.6,5.5-28.3c0-13-1.5-22.4-4.4-28.1
				C136.5,76.2,131.9,73.4,125.6,73.4z"/>
			<path class="st4" d="M194.5,162.9V78.8l-18,7.1l-3-18.9l26.9-8.8H215V163h-20.5V162.9z"/>
			<path class="st4" d="M253.6,164.5c-5.5,0-10.2-0.4-14.1-1.2v-18c2,0.7,4.1,1.2,6.5,1.6s5.4,0.6,9.2,0.6
				c15.2,0,24.8-7.3,28.7-21.9l1.9-7.6c-2.1,2.5-5,4.5-8.7,6.1s-8,2.4-12.7,2.4c-9.6,0-17.3-2.9-23-8.7s-8.5-13.8-8.5-23.9
				c0-11,3.5-19.9,10.6-26.9s16.3-10.5,27.7-10.5c11.5,0,20.6,3.7,27.3,11s10.1,18.6,10.1,33.7c0,20.8-4.7,36.6-14.2,47.3
				C284.9,159.1,271.3,164.5,253.6,164.5L253.6,164.5z M270.1,73.4c-4.9,0-8.8,1.7-12,5.1c-3.1,3.4-4.7,7.6-4.7,12.6
				c0,5.7,1.4,10.1,4.2,13.2c2.8,3.1,6.7,4.7,11.8,4.7c4.9,0,8.9-1.7,12-5c3.2-3.4,4.7-7,4.7-10.9c0-6.2-1.5-11-4.3-14.4
				C279,75.1,275,73.4,270.1,73.4L270.1,73.4z"/>
		</g>
	</g>
	<g>
		<g>
			<path class="st6" d="M3.7,397.7l2.9-3.9c1.8,1.8,4.1,3.2,6.9,3.2c3.2,0,5.3-1.6,5.3-4.3c0-3.1-1.8-5-8.6-5v-4.5
				c5.7,0,7.6-2,7.6-4.7c0-2.4-1.5-3.9-4.2-3.9c-2.2,0-4,1.1-5.9,2.8l-3.2-3.8c2.7-2.4,5.7-3.8,9.3-3.8c6,0,10.1,2.9,10.1,8.3
				c0,3.4-1.9,5.8-5.2,7.1v0.2c3.5,1,6.2,3.6,6.2,7.6c0,5.7-5,9-10.9,9C9.2,402,5.9,400.1,3.7,397.7z"/>
			<path class="st6" d="M29.2,385.7c0-10.8,4.2-16,10.5-16c6.3,0,10.5,5.3,10.5,16S46,402,39.7,402C33.4,402,29.2,396.4,29.2,385.7z
				 M44.4,385.7c0-8.7-2-11.2-4.7-11.2c-2.7,0-4.7,2.5-4.7,11.2c0,8.7,2,11.4,4.7,11.4C42.4,397.2,44.4,394.5,44.4,385.7z"/>
			<path class="st6" d="M54.1,387.2h11.5v4.4H54.1V387.2z"/>
			<path class="st6" d="M68.7,397.7l2.9-3.9c1.8,1.7,3.9,3.2,6.8,3.2c3.2,0,5.5-2.1,5.5-5.7c0-3.6-2.1-5.6-5.3-5.6
				c-1.8,0-2.9,0.5-4.7,1.6l-2.8-1.8l0.8-15.1h16.6v5.2H77.4l-0.6,6.6c1.2-0.6,2.3-0.9,3.7-0.9c5.2,0,9.6,3.1,9.6,9.9
				c0,6.9-5.1,10.9-10.9,10.9C74.3,402,71,400.1,68.7,397.7z"/>
			<path class="st6" d="M94.2,385.7c0-10.8,4.2-16,10.5-16c6.3,0,10.5,5.3,10.5,16s-4.2,16.3-10.5,16.3
				C98.4,402,94.2,396.4,94.2,385.7z M109.4,385.7c0-8.7-2-11.2-4.7-11.2c-2.7,0-4.7,2.5-4.7,11.2c0,8.7,2,11.4,4.7,11.4
				C107.4,397.2,109.4,394.5,109.4,385.7z"/>
			<path class="st6" d="M137.6,372h-8.7V368h8.7v-2.1h4.9v2.1h4.4v4.1h-4.4v1.8h-4.9V372z M164.8,400.6c0,2-0.3,3.1-1.6,3.7
				c-1.2,0.7-3,0.7-5.2,0.7c-0.2-1-0.5-2.2-1-3.2l-2.1,0.5c-0.1-0.6-0.3-1.3-0.5-2.1c-6,0.4-12.1,0.8-16.6,1l-0.4-4.2
				c2.1-0.1,4.8-0.2,7.7-0.3v-3.2h-9.5V405h-4.8v-11.4h-1.6v-4h1.6v-1.2h4.8v1.2h9.5v-1.8h-11.6v-13.4h28.3v13.4h-11.9v1.8h14.9
				V400.6z M138.4,379.6h6.8v-1.9h-6.8V379.6z M145.2,384.6v-1.9h-6.8v1.9H145.2z M166.3,368v4.1h-8.9v1.8h-4.9V372h-4.2V368h4.2
				v-2.1h4.9v2.1H166.3z M156.8,377.7h-6.9v1.9h6.9V377.7z M156.8,382.7h-6.9v1.9h6.9V382.7z M153,396.4c-0.3-0.7-0.6-1.3-1-1.9
				l3.5-0.9h-5.6v3L153,396.4z M159.4,401.1c0.4,0,0.5-0.1,0.5-0.5v-6.9h-4.2c1.3,2.3,2.6,5.4,3,7.5H159.4z"/>
			<path class="st6" d="M196.8,396.5c4.5,1.5,9.6,3.4,12.6,4.7l-2.3,3.9c-3.7-1.8-11.1-4.7-16.4-6.5l1.3-2.1h-1.3
				c-2,3.5-6.9,7-18.1,8.8c-0.6-1.2-1.8-2.9-2.8-4c7.6-1.1,11.8-2.9,14.2-4.7h-14v-4.1H187c0-0.4,0.1-0.8,0.1-1.1v-2.8h5v2.9
				c0,0.3,0,0.6,0,1h7.3c-0.9-0.8-1.9-1.5-2.8-2.1l1.5-1.4h-1.6c-0.2-1.1-0.7-2.5-1.2-3.6c1.3,0.1,2.9,0.1,3.4,0.1
				c0.5,0,0.6-0.2,0.6-0.6v-2.4h-7c1.1,0.8,2.2,1.7,2.8,2.5l-3.3,2.5c-0.8-1.1-2.6-2.7-4.1-3.7l1.7-1.3h-4.2v-3.2h1.6
				c-0.4-0.8-1.1-1.8-1.6-2.4c3.8-0.4,7.4-1.1,10.5-2.4c-0.9-1-2.2-2.3-3.5-3.3c-1.3,0.5-2.9,1-4.5,1.5c-0.5-0.9-1.6-2.2-2.4-2.8
				c5-1,8.8-2.5,11-4.1l4.1,0.8c-0.6,0.5-1.2,1-1.8,1.4h5.8l0.8-0.1l2.6,1.3c-1.8,3.4-4.8,5.7-8.4,7.3h4.6v2.7h4.7v3.2h-4.7v2.6
				c0,2-0.4,2.9-1.8,3.4c-0.6,0.3-1.3,0.4-2.2,0.5c1.3,0.8,2.5,1.8,3.3,2.6l-1,1h7v4.1H196.8z M177.1,382.1c0,2-0.6,6.1-3.4,8.4
				c-0.8-0.7-2.6-1.7-3.8-2.1c2.3-1.8,2.7-4.7,2.8-6.3h-2.4v-3.9h8.9v-2.3H172v-9.1h4.2v5.3h3.2v-6.3h4.5v23.9h-4.5v-7.7H177.1z
				 M192.8,374.9c-2.1,0.2-4,0.4-5.9,0.6l-0.4-2.5c1.8-0.1,3.8-0.3,6.3-0.5L192.8,374.9z M199.2,379.1v-2.6c-2.6,1.2-5.6,2-8.7,2.6
				H199.2z M196,370.6c0.9,0.8,1.8,1.6,2.6,2.4c1.2-0.7,2.3-1.5,3.2-2.4H196z"/>
			<path class="st6" d="M234.3,382.5v4.4h13.4v4.5H241l4.2,1.5c-1.5,2.4-3.1,4.9-4.4,6.7h9v4.6h-36.3v-4.6h8.3
				c-0.7-1.9-2.1-4.7-3.5-6.8l3.3-1.4h-6.1v-4.5h13.4v-4.4h-8.5v-2.1c-1.8,0.8-3.6,1.6-5.4,2.3c-0.7-1.5-2.1-3.4-3.3-4.6
				c7.9-2.3,15.5-6.5,19.4-12.8l4.7,2.1c-0.4,0.5-0.8,1.1-1.2,1.7c4.1,3.7,10.9,7.2,17.2,8.9c-1.1,1.1-2.7,3.1-3.4,4.4
				c-1.9-0.7-3.8-1.5-5.7-2.4v2.5H234.3z M222.6,391.4c1.5,2.1,3.1,4.8,3.7,6.7l-3.4,1.5h6.1v-8.2H222.6z M239,378
				c-2.6-1.6-5.1-3.5-7.3-5.5c-2,2.1-4.3,3.9-6.8,5.5H239z M234.3,391.4v8.2h5.3l-2.8-1.2c1.3-1.9,2.9-4.8,3.7-7H234.3z"/>
		</g>
		<path class="st6" d="M4.6,446.6h6.7V427H5.7v-3.8c3.1-0.6,5.3-1.4,7.2-2.6h4.6v26.1h5.8v5H4.6V446.6z"/>
		<path class="st6" d="M27.7,448.1c8.4-7.6,13.4-13.4,13.4-18.2c0-3.2-1.7-5-4.7-5c-2.3,0-4.2,1.5-5.7,3.2l-3.4-3.4
			c2.9-3,5.6-4.7,9.9-4.7c5.9,0,9.8,3.8,9.8,9.6c0,5.6-4.7,11.7-10.3,17.2c1.6-0.2,3.6-0.3,5-0.3h6.8v5.2H27.7V448.1z"/>
		<path class="st6" d="M53.7,448.2c0-2.3,1.6-4,3.8-4c2.2,0,3.9,1.8,3.9,4s-1.6,4-3.9,4C55.3,452.2,53.7,450.5,53.7,448.2z"/>
		<path class="st6" d="M67.8,446.6h6.7V427h-5.6v-3.8c3.1-0.6,5.3-1.4,7.2-2.6h4.6v26.1h5.8v5H67.8V446.6z"/>
		<path class="st6" d="M90.9,436c0-10.8,4.2-16,10.5-16c6.3,0,10.5,5.3,10.5,16s-4.2,16.3-10.5,16.3C95.1,452.2,90.9,446.7,90.9,436
			z M106.1,436c0-8.7-2-11.2-4.7-11.2c-2.7,0-4.7,2.5-4.7,11.2c0,8.7,2,11.4,4.7,11.4C104.1,447.4,106.1,444.7,106.1,436z"/>
		<path class="st6" d="M115.9,437.4h11.5v4.4h-11.5V437.4z"/>
		<path class="st6" d="M131.2,436c0-10.8,4.2-16,10.5-16c6.3,0,10.5,5.3,10.5,16s-4.2,16.3-10.5,16.3
			C135.4,452.2,131.2,446.7,131.2,436z M146.4,436c0-8.7-2-11.2-4.7-11.2c-2.7,0-4.7,2.5-4.7,11.2c0,8.7,2,11.4,4.7,11.4
			C144.4,447.4,146.4,444.7,146.4,436z"/>
		<path class="st6" d="M157.5,446.6h6.7V427h-5.6v-3.8c3.1-0.6,5.3-1.4,7.2-2.6h4.6v26.1h5.8v5h-18.7V446.6z"/>
		<path class="st6" d="M181.8,448.2c0-2.3,1.6-4,3.8-4c2.2,0,3.9,1.8,3.9,4s-1.6,4-3.9,4C183.4,452.2,181.8,450.5,181.8,448.2z"/>
		<path class="st6" d="M195.9,446.6h6.7V427H197v-3.8c3.1-0.6,5.3-1.4,7.2-2.6h4.6v26.1h5.8v5h-18.7V446.6z"/>
		<path class="st6" d="M218.3,447.9l2.9-3.9c1.8,1.8,4.1,3.2,6.9,3.2c3.2,0,5.3-1.6,5.3-4.3c0-3.1-1.8-5-8.6-5v-4.5
			c5.7,0,7.6-2,7.6-4.7c0-2.4-1.5-3.9-4.2-3.9c-2.2,0-4,1.1-5.9,2.8l-3.2-3.8c2.7-2.4,5.7-3.8,9.3-3.8c6,0,10.1,2.9,10.1,8.3
			c0,3.4-1.9,5.8-5.2,7.1v0.2c3.5,1,6.2,3.6,6.2,7.6c0,5.7-5,9-10.9,9C223.8,452.2,220.5,450.4,218.3,447.9z"/>
		<path class="st6" d="M259.8,432.5v22.8h-4.9v-37.6h16.2v14.9H259.8z M259.8,421.2v2.1h6.6v-2.1H259.8z M266.3,428.9v-2.3h-6.6v2.3
			H266.3z M278.7,445.9v8.7h-4.4v-8.7h-4c-0.4,2.9-1.8,7-5.4,9.4c-0.7-0.9-2.2-2.2-3.2-2.9c2.7-1.7,3.9-4.4,4.3-6.6h-4.2v-4.1h4.4
			v-3.2h-3.8v-3.9h20.3v3.9h-3.9v3.2h4.6v4.1H278.7z M274.3,441.8v-3.2h-3.9v3.2H274.3z M290.3,449.5c0,2.6-0.5,3.9-2,4.7
			c-1.5,0.8-3.7,1-6.9,1c-0.2-1.4-0.8-3.7-1.5-5c1.9,0.1,3.9,0.1,4.6,0c0.7,0,0.9-0.3,0.9-0.8v-16.8h-11.6v-15h16.5V449.5z
			 M278.6,421.2v2.1h6.8v-2.1H278.6z M285.4,429v-2.4h-6.8v2.4H285.4z"/>
		<path class="st6" d="M331,428.3c-0.9,6.1-2.4,11.3-4.6,15.5c2.1,3,4.8,5.4,8.3,7c-1.1,1-2.7,2.9-3.4,4.3c-3.2-1.7-5.8-3.9-7.9-6.8
			c-2.3,2.9-5.2,5.2-8.9,7.1c-0.4-1.1-1.8-3.3-2.8-4.4c3.9-1.8,6.8-4.2,9-7.2c-1.3-2.6-2.3-5.5-3.2-8.7c-0.7,1.3-1.5,2.4-2.3,3.4
			c-0.6-0.8-1.8-2.2-2.9-3.2c-0.2,11.7-0.4,16.2-1.5,17.6c-0.8,1.2-1.6,1.6-2.8,1.8c-1.1,0.2-2.7,0.2-4.5,0.2
			c-0.1-1.4-0.6-3.3-1.3-4.5c1.3,0.1,2.6,0.1,3.2,0.1c0.5,0,0.8-0.1,1.2-0.6c0.5-0.9,0.8-4.5,1-14.3h-3.5c0,6.6-1,13.6-6.2,19.4
			c-0.8-1.1-2.4-2.4-3.7-3.3c4.5-5.2,5.1-11.2,5.1-16.6v-8.1h-4.1v-4.6h8.1c-0.3-1.6-1.1-3.8-1.7-5.5l4.4-1c0.8,1.7,1.6,4,2,5.5
			l-3.4,1h9.2v4.6h-9.7v4.1h8.3c0,0,0,1.4,0,2v0.3c3.1-4.2,5-10.7,6-17.5l5.1,0.8c-0.4,2.3-0.8,4.6-1.4,6.8h12.2v4.6H331z
			 M320.5,428.5c0.7,3.7,1.7,7.1,3,10.1c1.2-3,2.1-6.4,2.6-10.3h-5.5L320.5,428.5z"/>
		<path class="st6" d="M353.5,418.8c-3.1,6.9-8,14-12.5,18.4c-1-1.1-3.2-3.3-4.5-4.3c4.5-3.7,8.9-9.8,11.4-15.9L353.5,418.8z
			 M365.3,438.1c3.4,4.6,7.3,10.6,9.3,14.5l-5.2,2.7c-0.5-1.2-1.3-2.6-2.2-4.1c-20.3,1.6-23.1,1.8-25.2,2.6
			c-0.3-1.1-1.3-3.9-2.1-5.3c1.4-0.4,2.5-1.5,4.2-3.4c1.8-1.8,7-8.9,10.3-15.9l5.8,2.4c-3.2,5.7-7.3,11.3-11.3,15.8l15.4-1
			c-1.3-2.1-2.7-4.3-4-6.1L365.3,438.1z M366.1,417.1c1.8,5.9,5.6,11.8,10.8,15c-1.1,1.1-2.9,3.5-3.8,5c-4.8-3.7-8.5-9.3-10.9-14.8
			h-6.7v-5.2H366.1z"/>
		<path class="st6" d="M385.8,432.5v22.8h-4.9v-37.6h16.2v14.9H385.8z M385.8,421.2v2.1h6.6v-2.1H385.8z M392.3,428.9v-2.3h-6.6v2.3
			H392.3z M404.7,445.9v8.7h-4.4v-8.7h-4c-0.4,2.9-1.8,7-5.4,9.4c-0.7-0.9-2.2-2.2-3.2-2.9c2.7-1.7,3.9-4.4,4.3-6.6h-4.2v-4.1h4.4
			v-3.2h-3.8v-3.9h20.3v3.9h-3.9v3.2h4.6v4.1H404.7z M400.3,441.8v-3.2h-3.9v3.2H400.3z M416.3,449.5c0,2.6-0.5,3.9-2,4.7
			c-1.5,0.8-3.7,1-6.9,1c-0.2-1.4-0.8-3.7-1.5-5c1.9,0.1,3.9,0.1,4.6,0c0.7,0,0.9-0.3,0.9-0.8v-16.8h-11.6v-15h16.5V449.5z
			 M404.6,421.2v2.1h6.8v-2.1H404.6z M411.4,429v-2.4h-6.8v2.4H411.4z"/>
		<path class="st6" d="M430.1,439.7v9.8c0,2.3-0.4,3.5-1.6,4.3c-1.3,0.8-3.1,1-5.8,1c-0.1-1.2-0.7-3.3-1.3-4.6c1.6,0,3,0,3.5,0
			c0.5,0,0.7-0.2,0.7-0.7V441c-1.4,0.4-2.6,0.8-3.9,1.1l-1.1-4.8c1.4-0.3,3.1-0.8,5-1.2v-7.4H421V424h4.5v-7.9h4.5v7.9h4.2v4.6h-4.2
			v6.2l3.8-1l0.7,4.5L430.1,439.7z M449.2,450.3c1,0.1,1.9,0.1,2.9,0.1c1.4,0,6.6,0,8.4,0c-0.6,1-1.2,3.1-1.3,4.4h-7.3
			c-5.5,0-9.7-1-12.6-6.1c-1.1,2.6-2.6,4.9-4.4,6.6c-0.8-0.8-2.6-2.4-3.7-3c3.5-2.8,5.2-7.4,5.8-13.1l4.5,0.5
			c-0.2,1.5-0.5,2.9-0.8,4.2c0.9,2.4,2.1,3.9,3.7,4.9v-11h-9.9v-4h24.8v4h-10.3v3.7h8v3.9h-8V450.3z M457.3,431.9h-20.7v-14.5h20.7
			V431.9z M452.5,420.9h-11.3v2.1h11.3V420.9z M452.5,426.2h-11.3v2.1h11.3V426.2z"/>
		<path class="st6" d="M501.6,445.9h-9.7c3.3,1.6,7.3,3.9,9.5,5.7l-3.9,3.5c-2.2-2-6.9-4.9-10.6-6.8l2.9-2.4h-4.8v9.4h-5v-9.4h-7.1
			l4.9,1.6c-2.4,2.9-6.6,5.5-10.1,7.1c-1-1-3-2.5-4.2-3.3c3.6-1.2,7.3-3.2,9.2-5.4h-9.2v-4.1h16.4v-2.9h5v2.9h16.7V445.9z
			 M496.4,440.8c-3-1.2-7.1-2.4-11.9-3.6c-4.7,1.9-11,2.8-19.2,3.3c-0.4-1.5-1-3.1-1.7-4.1c4.8-0.1,8.9-0.5,12.3-1
			c-2.4-0.5-4.7-0.9-7.2-1.3c1.1-1,2.3-2.1,3.5-3.4h-8.4v-3.9h11.8c1-1.3,1.9-2.5,2.6-3.7h-9.1v2.3h-4.6v-6.4h14.9
			c-0.3-0.6-0.6-1.2-0.9-1.8l5.3-1c0.5,0.8,1.1,1.8,1.6,2.8h15v6.4h-4.8V423h-15.4l3,0.9c-0.7,0.9-1.3,1.8-2.1,2.7h8.1
			c0.4-0.8,0.7-1.7,1-2.6l4.9,1c-0.2,0.5-0.4,1.1-0.6,1.6h6.6v3.9h-8.6c-0.9,1.4-2,2.6-3.2,3.6c4.5,1.1,8.7,2.3,11.8,3.4
			L496.4,440.8z M477.5,430.6c-0.3,0.4-0.7,0.7-1,1.1c2.3,0.4,4.7,0.8,6.9,1.3c1.2-0.7,2.3-1.4,3.2-2.4H477.5z"/>
	</g>
	<text transform="matrix(1 0 0 1 -260.8664 682.9138)"><tspan x="0" y="0" class="st6" style="font-family:'NotoSansCJKtc-Bold-B5pc-H'; font-size:42px;">30-50 萬獎金</tspan><tspan x="0" y="50.4" class="st6" style="font-family:'NotoSansCJKtc-Bold-B5pc-H'; font-size:42px;">12.10-01.13 開放公開提案</tspan></text>
</g>
</svg>
