<?xml version="1.0" encoding="utf-8"?>
<svg version="1.1" id="Layer_1" xmlns="http://www.w3.org/2000/svg" x="0" y="0" viewBox="0 0 100 100" xml:space="preserve" style="height: 100%; width: 100%; shape-rendering: auto;" width="128px" height="128px"><g class="ldl-scale" style="transform-origin: 50% 50%; transform: scale(1);">
    <path fill="none" stroke="#333" stroke-width="3.5" stroke-linecap="round" stroke-miterlimit="10" d="M35.858 10l5.77 9.994" style="stroke: rgb(51, 51, 51);"></path>
    <path fill="none" stroke="#333" stroke-width="3.5" stroke-linecap="round" stroke-miterlimit="10" d="M64.142 10l-5.77 9.994" style="stroke: rgb(51, 51, 51);"></path>
    <path d="M27.798 42.865v22.724C27.798 79.071 37.738 90 50 90s22.202-10.929 22.202-24.411V42.865c0-.325-.011-.643-.022-.961H27.821c-.012.318-.023.636-.023.961z" stroke="#333" stroke-width="3.5" fill="#a8b980" stroke-miterlimit="10" style="fill: rgb(168, 185, 128); stroke: rgb(51, 51, 51);"></path>
    <path d="M72.179 41.904h-9.457c.011.434.022.868.022 1.311v30.993c0 4.425-.581 8.645-1.626 12.507 6.624-4.224 11.083-12.1 11.083-21.125V42.865c.001-.325-.01-.643-.022-.961z" opacity=".2" stroke-linejoin="round" stroke="#000" stroke-width="3.5" stroke-miterlimit="10" style="fill: rgb(0, 0, 0); stroke: rgb(0, 0, 0);"></path>
    <path d="M50 14.193c-11.966 0-21.717 7.369-22.179 20.254H72.18C71.717 21.562 61.966 14.193 50 14.193z" stroke="#333" stroke-width="3.5" fill="#a8b980" stroke-miterlimit="10" style="fill: rgb(168, 185, 128); stroke: rgb(51, 51, 51);"></path>
    <path d="M62.134 34.448h10.045c-.436-12.125-9.095-19.36-20.086-20.173 5.525 4.309 9.292 11.16 10.041 20.173z" opacity=".2" stroke-linejoin="round" stroke="#000" stroke-width="3.5" stroke-miterlimit="10" style="fill: rgb(0, 0, 0); stroke: rgb(0, 0, 0);"></path>
    <circle cx="41.123" cy="25.677" r="3.728" fill="#333" style="fill: rgb(51, 51, 51);"></circle>
    <circle cx="58.522" cy="25.677" r="3.728" fill="#333" style="fill: rgb(51, 51, 51);"></circle>
    <path stroke-linecap="round" fill="none" stroke="#fff" stroke-linejoin="round" stroke-width="3.5" stroke-miterlimit="10" d="M34.75 62.809v1.143" style="stroke: rgb(255, 255, 255);"></path>
    <path stroke-linecap="round" fill="none" stroke="#fff" stroke-linejoin="round" stroke-width="3.5" stroke-miterlimit="10" d="M34.75 49.5v7.976" style="stroke: rgb(255, 255, 255);"></path>
    <path d="M34.835 23.25a9.172 9.172 0 011.687-1.859" fill="none" stroke-width="3.5" stroke-linecap="round" stroke="#fff" stroke-miterlimit="10" style="stroke: rgb(255, 255, 255);"></path>
    <path fill="#a8b980" stroke-width="3.5" stroke="#fff" stroke-linecap="round" stroke-miterlimit="10" d="M32.349 26.861l-.098.278" style="stroke: rgb(255, 255, 255); fill: rgb(168, 185, 128);"></path>
    <metadata xmlns:d="https://loading.io/stock/">
        <d:name>
            android
        </d:name>
        <d:tags>
            android,mobile,app,developer,programmer,coder,phone,device
        </d:tags>
        <d:license>
            by
        </d:license>
        <d:slug>
            n67u27
        </d:slug>
    </metadata>
</g><!-- [ldio] generated by https://loading.io/ --></svg>
